<svg xmlns="http://www.w3.org/2000/svg" version="1.1" xmlns:xlink="http://www.w3.org/1999/xlink" xmlns:svgjs="http://svgjs.dev/svgjs" width="100%" height="100%" viewBox="0 0 1000 600"><rect width="1000" height="600" x="0" y="0" fill="#00000000"/><g><circle r="166.66666666666666" cx="222.22225443522134" cy="244.44447157118097" fill="#48e5c2" transform="matrix(2.25000013732911,0,0,2.25000013732911,0,-250.00002975464122)"/><path d="M219.03548650233685 219.10547923016634L219.03548650233685 219.10547923016634Q220.821854950754 229.60382918855623 221.20661123195154 242.080925735962Q221.59136751314907 254.53053969185373 222.0036063858607 265.02888965024357L222.0036063858607 265.02888965024357Q222.0036063858607 265.6060240720399 221.89367601980427 267.20001437985826Q221.81122824526193 268.79400468767665 221.01423309135276 268.9863828282754L221.01423309135276 268.9863828282754Q220.60199421864112 268.9863828282754 220.02485979684482 267.30994474591466Q219.4202427835344 265.6060240720399 219.22786464293566 265.02888965024357L219.22786464293566 265.02888965024357Q218.43086948902646 262.6379041885161 217.74380470117373 259.4774061643934Q217.05673991332097 256.3169081402708 216.45212290001055 253.0464797500918Q215.87498847821425 249.77605135991274 215.4627496055026 246.5331055612478Q215.07799332430508 243.26267717106873 214.8856151837063 240.48693542814368L214.8856151837063 240.48693542814368Q214.8856151837063 239.88231841483326 214.5833066770511 237.13405926342227Q214.28099817039592 234.35831752049722 213.6763811570855 230.7031328491206Q213.0992467352892 227.02046558622993 212.30225158138 222.78814649305707Q211.5052564274708 218.52834480837004 210.51588313296287 214.57085163033827L210.51588313296287 214.57085163033827Q210.51588313296287 222.87059426759936 210.2135746263077 230.8955109897194Q209.93874871116657 238.8929451203253 210.51588313296287 247.02779220850175L210.51588313296287 247.02779220850175Q210.9281220056745 252.1670368216403 211.6976345680696 257.0039729281236Q212.49462972197878 261.868391626121 213.48400301648672 266.8152580986607L213.48400301648672 266.8152580986607Q214.8856151837063 273.74087116021633 217.63387433511727 280.666484221772Q220.40961607804235 287.59209728332763 224.28466148153183 293.7207151909741Q228.13222429350716 299.8493330986205 233.18902113210333 304.90612993721675Q238.21833537918542 309.9354441842988 244.1545751462331 312.9035640678226L244.1545751462331 312.9035640678226Q245.14394844074107 313.31580294053424 245.06150066619873 313.81048958778825Q244.95157030014227 314.3051762350422 244.1545751462331 314.08531550292935L244.1545751462331 314.08531550292935Q236.04721064957076 312.3264296460263 229.9185927419243 307.46201094802893Q223.78997483427784 302.6250748415456 219.1179342768792 295.8918399205887Q214.47337631099467 289.15860499963185 211.5052564274708 281.2436186435683Q208.53713654394699 273.3286322875047 206.97062882764274 265.4136459314411L206.97062882764274 265.4136459314411Q206.36601181433232 262.0607697667197 205.7613948010219 258.68041101048425Q205.1842603792256 255.3275348457629 204.77202150651397 251.9746586810415L204.77202150651397 251.9746586810415Q201.8039016229901 261.45615275340936 198.3410950922123 270.55289054457967Q194.8782885614345 279.67711092726404 191.71779053731186 287.9768535645252Q188.55729251318925 296.2765962017863 186.19378964297582 303.9992044172511Q183.8028041812483 311.7218126327159 182.62105274614157 318.64742569427153L182.62105274614157 318.64742569427153Q182.42867460554282 318.8398038348703 182.42867460554282 319.0321819754691L182.42867460554282 319.0321819754691Q182.01643573283116 319.4444208481807 182.01643573283116 319.4444208481807L182.01643573283116 319.4444208481807Q181.43930131103485 319.4444208481807 181.43930131103485 318.64742569427153L181.43930131103485 318.64742569427153Q180.03768914381527 309.5506879031012 182.12636609888762 299.95926346467695Q184.21504305395993 290.3403564347386 187.87022772533652 280.25424534906034Q191.5254123967131 270.1681342633821 195.67528371534365 259.5873365304499Q199.82515503397423 249.0065387975177 202.6008967768993 238.12343255793024L202.6008967768993 238.12343255793024Q204.3872652253164 231.39019763697337 205.1842603792256 223.77751978756498Q205.98125553313477 216.13735934664254 205.56901666042313 208.7170596378329Q205.1842603792256 201.29675992902327 203.09558342415326 194.3711468674677Q201.03438906059503 187.44553380591202 197.269274023162 181.72915477097723L197.269274023162 181.72915477097723Q196.27990072865407 180.5199207443564 196.6646570098516 180.13516446315884L196.6646570098516 180.13516446315884Q197.07689588256326 179.75040818196135 197.8464084449583 180.13516446315884Q198.6434035988675 180.5199207443564 199.24802061217792 181.12453775766681L199.24802061217792 181.12453775766681Q203.20551379020972 185.08203093569858 206.25608144827586 188.7372156070752Q209.33413169785615 192.39240027845176 211.6976345680696 196.7621323291952Q214.08862002979714 201.10438178842452 215.87498847821425 206.46348713367593Q217.63387433511727 211.79510988741316 219.03548650233685 219.10547923016634ZM242.97282371112638 265.2212677908424L242.97282371112638 265.2212677908424Q244.1545751462331 259.4774061643934 245.14394844074107 255.13515670516415Q246.13332173524898 250.7654246544207 247.42500353641216 246.8079314763889Q248.7166853375753 242.85043829835712 250.393123419936 238.810497345783Q252.0695615022967 234.74307380169478 254.652925104623 229.79620732915504L254.652925104623 229.79620732915504Q255.03768138582052 229.21907290735874 255.94460690578612 227.7350129655968Q256.8240498342376 226.25095302383488 257.4286668475481 226.44333116443363L257.4286668475481 226.44333116443363Q257.8134231287456 226.44333116443363 257.6210449881468 228.22969961285077Q257.4286668475481 229.9885854697538 257.2088061154352 230.5932024830642L257.2088061154352 230.5932024830642Q256.63167169363885 233.1765660853905 255.72474617367325 236.52944225011186Q254.84530324522174 239.88231841483326 253.8559299507138 243.56498567772394Q252.86655665620586 247.22017034910056 251.87718336169792 250.7654246544207Q250.88781006718997 254.33816155125493 250.28319305387956 256.92152515358123L250.28319305387956 256.92152515358123Q249.5136804914845 260.27440131830264 248.60675497151885 265.1113374247859Q247.72731204306737 269.9757561227833 246.82038652310175 275.911995889831Q245.94094359465024 281.8482356568787 245.44625694739628 288.5814705778356Q244.95157030014227 295.2872229072783 245.14394844074107 302.43269670094685L245.14394844074107 302.43269670094685Q243.35757999232393 301.44332340643894 241.48876376936445 299.95926346467695Q239.619947546405 298.475203522915 237.8335790979879 295.69946177999L237.8335790979879 295.69946177999Q233.68370777935732 289.76322201294226 231.40265268368623 283.13991745804185Q229.1215975880151 276.4891303116273 227.7474680123096 269.3711391094729Q226.34585584509003 262.2531479073185 225.76872142329373 254.83284819850894Q225.1641044099833 247.4125484896993 224.36710925607414 240.29455728754488L224.36710925607414 240.29455728754488Q223.3777359615662 230.97795876426176 222.580740807657 221.4964646918939Q221.81122824526193 211.98748802801197 218.43086948902646 201.90137694233374L218.43086948902646 201.90137694233374Q218.04611320782894 200.91200364782577 217.93618284177248 200.8020732817693Q217.85373506723016 200.71962550722702 218.2384913484277 200.52724736662822L218.2384913484277 200.52724736662822Q218.8431083617381 200.52724736662822 219.4202427835344 201.5166206611362L219.4202427835344 201.5166206611362Q222.0036063858607 204.07250167194837 223.8724226088202 208.93692036994577Q225.76872142329373 213.7738564764291 227.25278136505565 219.71009624347676Q228.73684130681758 225.64633601052446 229.80866237586787 232.26964056542488Q230.90796603643224 238.8929451203253 231.70496119034144 245.1314933940282Q232.4744737527365 251.37004166773113 233.18902113210333 256.619216646926Q233.87608591995607 261.868391626121 234.45322034175237 265.2212677908424L234.45322034175237 265.2212677908424Q235.85483250897198 253.7335445379445 237.42134022527623 244.74673711283066Q239.0153305330946 235.7324470962027 240.80169898151172 230.20844620186665L240.80169898151172 230.20844620186665Q242.36820669781596 225.2615797293269 244.56681401894474 219.9024743840755Q246.7379387485594 214.57085163033827 249.2938197593716 209.32167665114332Q251.87718336169792 204.07250167194837 254.54299473856653 199.31801334000738Q257.2088061154352 194.59100759958056 259.5997915771627 191.0182707027463L259.5997915771627 191.0182707027463Q260.17692599895906 190.02889740823832 260.7815430122695 189.23190225432916Q261.3861600255799 188.43490710042 261.7709163067774 188.84714597313166L261.7709163067774 188.84714597313166Q262.1556725879749 189.23190225432916 261.88084667283385 190.13882777429478Q261.57853816617865 191.0182707027463 261.166299293467 192.00764399725426L261.166299293467 192.00764399725426Q258.6104182826548 199.73025221271905 256.32936318698364 205.8588701203655Q254.04830809131258 211.98748802801197 251.76725299564148 217.92372779505962Q249.5136804914845 223.85996756210733 247.53493390246857 230.290893976409Q245.55618731345268 236.72182039071066 243.5774407244368 244.63680674677425L243.5774407244368 244.63680674677425Q242.36820669781596 249.77605135991274 240.80169898151172 255.51991298636165Q239.20770867369336 261.2637746128106 238.32826574524185 267.30994474591466Q237.42134022527623 273.3286322875047 237.72364873193143 279.5671805612076Q238.02595723858664 285.8057288349105 240.60932084091294 291.7419686019582L240.60932084091294 291.7419686019582Q240.38946010880008 288.3616098457227 240.60932084091294 284.1292907525498Q240.80169898151172 279.8694890678628 241.2963856287657 275.99444366437336Q241.79107227601966 272.146880852398 242.28575892327362 269.17876096887414Q242.78044557052763 266.2106410853503 242.97282371112638 265.2212677908424ZM239.0153305330946 301.6357015470377L239.0153305330946 301.6357015470377Q241.18645526270925 303.9992044172511 243.5774407244368 305.89550323172466Q245.94094359465024 307.76431945468414 248.7166853375753 309.3583097625025L248.7166853375753 309.3583097625025Q247.12269502975695 300.4539501119309 248.11206832426487 290.8350430819926Q249.10144161877284 281.2436186435683 251.4924270805004 271.34988569848883Q253.8559299507138 261.45615275340936 257.01642797483646 251.56241980832988Q260.17692599895906 241.6686868632504 263.1450458824829 232.18719279088253L263.1450458824829 232.18719279088253Q267.5147779332263 218.3359666677713 270.18058931009494 203.3854368840956Q272.8464006869636 188.43490710042 273.2586395596752 173.59430768280077L273.2586395596752 173.59430768280077Q273.2586395596752 172.0277999664965 273.451017700274 172.0277999664965L273.451017700274 172.0277999664965Q274.0281521220703 172.0277999664965 274.0281521220703 173.01717326100447L274.0281521220703 173.01717326100447Q275.8145205704874 181.50929403886437 276.0068987110862 189.53421076098437Q276.22675944319906 197.55912748310436 275.23738614869114 205.36418347311155Q274.24801285418323 213.16923946311863 272.46164440576604 220.89184767858347Q270.67527595734896 228.61445589404832 268.3117730871355 236.52944225011186L268.3117730871355 236.52944225011186Q265.34365320361167 247.22017034910056 262.1556725879749 257.99334622263154Q258.9951745638523 268.79400468767665 256.52174132758245 279.1824242800101Q254.04830809131258 289.5708438723435 252.86655665620586 299.54702459196534Q251.68480522109914 309.5506879031012 252.4818003750083 318.4550475536728L252.4818003750083 318.4550475536728Q252.4818003750083 319.25204270758195 252.0695615022967 319.25204270758195L252.0695615022967 319.25204270758195Q251.68480522109914 319.25204270758195 251.5748748550427 318.94973420092674Q251.4924270805004 318.64742569427153 251.2725663483875 318.4550475536728L251.2725663483875 318.4550475536728Q250.50305378599242 316.47630096465684 250.393123419936 316.2839228240581Q250.28319305387956 316.06406209194523 249.70605863208326 314.08531550292935L249.70605863208326 314.08531550292935Q249.2938197593716 312.5188077866251 248.52430719697654 311.91419077331466Q247.72731204306737 311.3370563515184 247.3150731703557 311.1171956194055L247.3150731703557 311.1171956194055Q243.96219700563432 309.9354441842988 241.5986941354209 308.9460708897908Q239.20770867369336 307.9566975952829 235.25021549566156 303.9992044172511L235.25021549566156 303.9992044172511Q233.68370777935732 302.43269670094685 231.89733933094018 299.65695495802174Q230.11097088252305 296.8812132150967 228.73684130681758 294.21540183822805Q227.335229139598 291.5495904613594 226.7580947178017 289.46091350628706Q226.15347770449128 287.37223655121477 226.7580947178017 287.17985841061596L226.7580947178017 287.17985841061596Q226.95047285840045 287.17985841061596 227.7474680123096 287.8669231984687Q228.51698057470472 288.5814705778356 229.31397572861388 289.46091350628706Q230.11097088252305 290.3403564347386 230.7980356703758 291.32972972924654Q231.48510045822854 292.3191030237545 231.70496119034144 292.53896375586737L231.70496119034144 292.53896375586737Q235.25021549566156 297.87058650960466 239.0153305330946 301.6357015470377ZM181.0270624383232 235.7324470962027L181.0270624383232 235.7324470962027Q183.41804790005074 226.63570930503238 186.6884762902298 217.12673264115045Q189.93142208889475 207.64523856878264 192.13002941002352 200.1150084939166L192.13002941002352 200.1150084939166Q192.51478569122105 199.12563519940863 192.81709419787626 198.32864004549947Q193.11940270453147 197.55912748310436 193.504158985729 197.75150562370317L193.504158985729 197.75150562370317Q193.88891526692655 197.75150562370317 193.88891526692655 198.74087891821108Q193.88891526692655 199.73025221271905 193.88891526692655 200.71962550722702L193.88891526692655 200.71962550722702Q194.1087759990394 215.14798605213457 190.1512828210076 229.60382918855623Q186.19378964297582 244.0596723249779 181.2469231704361 258.10327658868795L181.2469231704361 258.10327658868795Q178.0589425547994 267.0076362392595 174.89844453067676 276.2143043964862Q171.73794650655415 285.3934899621988 170.1439561987358 296.0842180611875L170.1439561987358 296.0842180611875Q169.95157805813702 297.07359135569544 169.95157805813702 297.1835217217519Q169.95157805813702 297.26596949629425 169.5668217769395 297.26596949629425L169.5668217769395 297.26596949629425Q169.37444363634071 297.26596949629425 168.96220476362907 295.8918399205887L168.96220476362907 295.8918399205887Q167.78045332852236 290.5602171668515 169.0721351296855 282.42537007867503Q170.36381693084866 274.3180055820127 172.53494166046335 265.5235762974976Q174.70606639007798 256.70166442146837 177.28942999240428 248.70423029086248Q179.8453110032165 240.67931356874243 181.0270624383232 235.7324470962027ZM177.28942999240428 277.8907424788469L177.28942999240428 277.8907424788469Q180.83468429772444 267.8046313931687 185.28686412301022 256.8115947875248Q189.73904394829597 245.81855818188092 194.3011541396382 235.92482523680144L194.3011541396382 235.92482523680144Q194.49353228023693 235.54006895560394 195.29052743414613 234.16593937989848Q196.0875225880553 232.76432721267884 196.47227886925285 232.76432721267884L196.47227886925285 232.76432721267884Q196.85703515045037 232.95670535327764 196.9669655165068 234.55069566109597Q197.07689588256326 236.14468596891436 196.6646570098516 236.72182039071066L196.6646570098516 236.72182039071066Q196.27990072865407 239.1128058524382 195.59283594080134 242.57561238321603Q194.8782885614345 246.03841891399384 193.88891526692655 249.6936035853704Q192.89954197241858 253.34878825674696 191.91016867791063 256.70166442146837Q190.9207953834027 260.08202317770383 190.1512828210076 262.44552604791727L190.1512828210076 262.44552604791727Q189.5466658076972 264.2318944963344 187.45798885262488 271.1575075578901Q185.39679448906665 278.0831206194457 183.225669759452 286.49279362276326Q181.0270624383232 294.9024666260808 179.3506243559625 302.81745298214435Q177.67418627360183 310.732439338208 178.0589425547994 314.497554375641L178.0589425547994 314.497554375641Q178.0589425547994 316.2839228240581 177.48180813300306 316.2839228240581L177.48180813300306 316.2839228240581Q177.28942999240428 316.2839228240581 176.9871214857491 315.5693754446913Q176.6848129790939 314.8823106568385 176.30005669789637 314.497554375641L176.30005669789637 314.497554375641Q174.70606639007798 311.1171956194055 174.21137974282402 306.3901898789786Q173.71669309557004 301.6357015470377 174.01900160222525 296.49645693389914Q174.32131010888045 291.32972972924654 175.20075303733196 286.49279362276326Q176.08019596578347 281.6558575162799 177.28942999240428 277.8907424788469ZM265.5360313442104 186.2637823708053L265.5360313442104 186.2637823708053Q266.3330264981196 182.30628919277353 266.7177827793171 178.65110452139697Q267.1025390605147 174.99591985002036 267.5147779332263 170.84604853138978L267.5147779332263 170.84604853138978Q267.5147779332263 170.43380965867817 267.7071560738251 169.93912301142416Q267.89953421442385 169.4444363641702 268.3117730871355 169.4444363641702L268.3117730871355 169.4444363641702Q268.50415122773427 169.4444363641702 269.0812856495305 170.43380965867817L269.0812856495305 170.43380965867817Q269.30114638164343 170.84604853138978 269.30114638164343 171.23080481258734L269.30114638164343 171.23080481258734Q269.87828080343974 173.20955140160322 270.18058931009494 174.8035417094216Q270.4828978167502 176.37004942572582 270.5653455912925 178.15641787414296Q270.67527595734896 179.9427863225601 270.5653455912925 182.2238414182312Q270.4828978167502 184.47741392238817 269.87828080343974 187.44553380591202L269.87828080343974 187.44553380591202Q269.4935245222422 189.83651926763957 268.58659900227656 193.18939543236098Q267.7071560738251 196.56975418859645 266.7177827793171 199.6203218466626Q265.72840948480916 202.6983720962429 264.8489665563577 204.75956645980114Q263.9420410363921 206.84824341487342 263.3649066145957 206.65586527427467L263.3649066145957 206.65586527427467Q262.95266774188406 206.65586527427467 262.95266774188406 205.5565616137103Q262.95266774188406 204.48474054466004 263.1450458824829 203.19305874349686Q263.3649066145957 201.90137694233374 263.5572847551945 200.52724736662822Q263.7496628957933 199.12563519940863 263.7496628957933 198.32864004549947L263.7496628957933 198.32864004549947L265.5360313442104 186.2637823708053ZM196.0875225880553 194.59100759958056L196.0875225880553 194.59100759958056Q195.29052743414613 191.21064884334504 194.19122377358173 188.05015081922244Q193.11940270453147 184.88965279509983 191.33303425611433 182.11391105217479L191.33303425611433 182.11391105217479Q190.53603910220517 180.93215961706807 190.9207953834027 180.73978147646926L190.9207953834027 180.73978147646926Q191.33303425611433 180.73978147646926 192.13002941002352 181.12453775766681L192.13002941002352 181.12453775766681L192.89954197241858 181.50929403886437Q195.4829055747449 183.90027950059186 197.35172179770436 186.2637823708053Q199.24802061217792 188.65476783253285 200.42977204728462 194.1787687268689L200.42977204728462 194.1787687268689Q201.03438906059503 196.34989345648358 201.2267672011938 199.6203218466626Q201.41914534179259 202.89075023684165 201.30921497573613 206.05124826096426Q201.2267672011938 209.21174628508686 200.81452832848217 211.4103536062156Q200.42977204728462 213.5814783358303 199.63277689337545 213.38910019523155L199.63277689337545 213.38910019523155Q199.24802061217792 213.38910019523155 199.05564247157915 212.39972690072364Q198.83578173946626 211.4103536062156 198.6434035988675 210.1186718050525Q198.45102545826873 208.82699000388936 198.25864731766998 207.64523856878264Q198.0662691770712 206.46348713367593 198.0662691770712 206.05124826096426L198.0662691770712 206.05124826096426Q197.65403030435957 202.89075023684165 197.269274023162 200.1150084939166Q196.85703515045037 197.3392667509915 196.0875225880553 194.59100759958056Z " fill="#005242" transform="matrix(2.25000013732911,0,0,2.25000013732911,0,-250.00002975464122)"/><path d="MNaN 244.44443766276106 " fill="#00000000" transform="matrix(2.25000013732911,0,0,2.25000013732911,0,-250.00002975464122)"/></g></svg>